<svg xmlns="http://www.w3.org/2000/svg" viewBox="0 0 24 24">
  <path d="M2.59375 0C1.175781 0 0 1.175781 0 2.59375L0 18.40625C0 19.824219 1.175781 21 2.59375 21L14.40625 21C15.824219 21 17 19.824219 17 18.40625L17 2.59375C17 1.175781 15.824219 0 14.40625 0 Z M 2.59375 2L14.40625 2C14.789063 2 15 2.210938 15 2.59375L15 18.40625C15 18.789063 14.789063 19 14.40625 19L2.59375 19C2.210938 19 2 18.789063 2 18.40625L2 2.59375C2 2.210938 2.210938 2 2.59375 2 Z M 18 2.59375L18 4.6875L21.5 5.59375C21.800781 5.695313 22.007813 6.007813 21.90625 6.40625L18 21.6875C17.898438 21.988281 17.585938 22.195313 17.1875 22.09375L15.8125 21.6875C15.3125 21.886719 14.789063 22.09375 14.1875 22.09375L9.1875 22.09375L16.6875 24L17.5 24C18.699219 24 19.699219 23.199219 20 22L23.90625 6.6875C24.304688 5.386719 23.398438 3.894531 22 3.59375 Z M 12.40625 3L11.3125 6L11.6875 6L12 5.1875L13.09375 5.1875L13.40625 6L13.8125 6L12.6875 3 Z M 12.5 3.59375L12.90625 4.90625L12 4.90625 Z M 19.3125 6L17.5 8.59375L17.90625 8.6875L18.40625 8L19.5 8.3125L19.5 9.1875L19.90625 9.3125L19.59375 6.09375 Z M 8.40625 6.5C8.40625 6.5 4.5 9.1875 4.5 11.1875C4.5 12.386719 5.300781 13.1875 6.5 13.1875C7.101563 13.1875 7.792969 12.707031 8.09375 12.40625C8.09375 12.40625 7.789063 13.800781 7.1875 15C7.1875 15.199219 9.789063 15.101563 9.6875 15C9.085938 13.898438 8.8125 12.40625 8.8125 12.40625C9.210938 12.707031 9.804688 13.09375 10.40625 13.09375C11.605469 13.09375 12.40625 12.292969 12.40625 11.09375C12.40625 8.992188 8.507813 6.398438 8.40625 6.5 Z M 19.3125 6.59375L19.40625 8L18.59375 7.6875 Z M 3.1875 15L4.3125 18L4.59375 18L5.6875 15L5.3125 15L5 15.8125L3.90625 15.8125L3.59375 15 Z M 4.09375 16.09375L5 16.09375L4.5 17.40625Z" fill="#F1E8BB" />
</svg>