<?xml version="1.0" encoding="UTF-8"?>
<svg xmlns="http://www.w3.org/2000/svg" xmlns:xlink="http://www.w3.org/1999/xlink" viewBox="0 0 64 64" width="64px" height="64px">
<defs>
<linearGradient id="linear0" gradientUnits="userSpaceOnUse" x1="113" y1="219.634033" x2="113" y2="34.284908" gradientTransform="matrix(0.283186,0,0,0.283186,0,0)">
<stop offset="0.322" style="stop-color:rgb(26.666668%,26.666668%,26.666668%);stop-opacity:1;"/>
<stop offset="0.466" style="stop-color:rgb(51.372552%,47.843137%,47.843137%);stop-opacity:1;"/>
<stop offset="0.752" style="stop-color:rgb(51.372552%,47.843137%,47.843137%);stop-opacity:1;"/>
<stop offset="0.898" style="stop-color:rgb(51.372552%,47.843137%,47.843137%);stop-opacity:1;"/>
</linearGradient>
</defs>
<g id="surface66480585">
<path style=" stroke:none;fill-rule:nonzero;fill:url(#linear0);" d="M 47.910156 19.996094 C 47.957031 19.496094 47.980469 18.988281 47.980469 18.484375 C 47.980469 9.667969 40.8125 2.5 32 2.5 C 23.1875 2.5 16.019531 9.667969 16.019531 18.484375 C 16.019531 18.988281 16.042969 19.496094 16.089844 19.996094 C 9.988281 21.871094 5.589844 27.199219 4.902344 33.542969 C 4.210938 39.890625 7.363281 46.035156 12.917969 49.179688 C 18.472656 52.324219 25.363281 51.859375 30.449219 48.003906 L 23.992188 60.402344 C 23.847656 60.683594 23.890625 61.019531 24.101562 61.253906 C 24.3125 61.484375 24.644531 61.5625 24.9375 61.445312 C 29.46875 59.625 34.53125 59.625 39.0625 61.445312 C 39.355469 61.5625 39.6875 61.484375 39.898438 61.253906 C 40.109375 61.019531 40.152344 60.683594 40.007812 60.402344 L 33.550781 48.003906 C 38.632812 51.859375 45.523438 52.316406 51.078125 49.171875 C 56.628906 46.03125 59.777344 39.886719 59.089844 33.542969 C 58.402344 27.199219 54.007812 21.875 47.910156 19.996094 Z M 32 58.578125 C 30.035156 58.578125 28.078125 58.863281 26.195312 59.421875 L 32 48.273438 L 37.804688 59.421875 C 35.921875 58.863281 33.964844 58.578125 32 58.578125 Z M 43.203125 49.753906 C 39.15625 49.746094 35.296875 48.054688 32.550781 45.082031 C 32.410156 44.925781 32.210938 44.839844 32 44.839844 C 31.789062 44.839844 31.589844 44.925781 31.449219 45.082031 C 27.269531 49.617188 20.675781 51.007812 15.023438 48.546875 C 9.367188 46.089844 5.890625 40.316406 6.359375 34.167969 C 6.824219 28.019531 11.136719 22.839844 17.097656 21.265625 C 17.464844 21.167969 17.699219 20.816406 17.648438 20.441406 C 16.890625 14.851562 19.449219 9.328125 24.203125 6.292969 C 28.957031 3.253906 35.042969 3.253906 39.796875 6.292969 C 44.550781 9.328125 47.105469 14.851562 46.347656 20.441406 C 46.296875 20.816406 46.535156 21.167969 46.902344 21.265625 C 53.9375 23.125 58.5 29.917969 57.5625 37.132812 C 56.625 44.351562 50.476562 49.75 43.199219 49.753906 Z M 43.203125 49.753906 "/>
</g>
</svg>
