<?xml version="1.0" encoding="UTF-8"?>
<svg xmlns="http://www.w3.org/2000/svg" xmlns:xlink="http://www.w3.org/1999/xlink" viewBox="0 0 64 64" width="64px" height="64px">
<defs>
<linearGradient id="linear0" gradientUnits="userSpaceOnUse" x1="113" y1="219.634033" x2="113" y2="34.284908" gradientTransform="matrix(0.283186,0,0,0.283186,0,0)">
<stop offset="0.322" style="stop-color:rgb(69.803923%,0%,3.921569%);stop-opacity:1;"/>
<stop offset="0.466" style="stop-color:rgb(97.647059%,6.27451%,11.764706%);stop-opacity:1;"/>
<stop offset="0.752" style="stop-color:rgb(97.647059%,6.27451%,11.764706%);stop-opacity:1;"/>
<stop offset="0.898" style="stop-color:rgb(97.647059%,6.27451%,11.764706%);stop-opacity:1;"/>
</linearGradient>
</defs>
<g id="surface36916705">
<path style=" stroke:none;fill-rule:nonzero;fill:url(#linear0);" d="M 61.046875 31.3125 C 54.730469 28.609375 48.988281 24.722656 44.136719 19.863281 C 39.277344 15.011719 35.390625 9.269531 32.6875 2.953125 C 32.570312 2.679688 32.300781 2.5 32 2.5 C 31.699219 2.5 31.429688 2.679688 31.3125 2.953125 C 28.609375 9.269531 24.722656 15.011719 19.863281 19.863281 C 15.011719 24.722656 9.269531 28.609375 2.953125 31.3125 C 2.679688 31.429688 2.5 31.699219 2.5 32 C 2.5 32.300781 2.679688 32.570312 2.953125 32.6875 C 9.269531 35.390625 15.011719 39.277344 19.863281 44.136719 C 24.722656 48.992188 28.609375 54.730469 31.308594 61.046875 C 31.429688 61.320312 31.699219 61.5 32 61.5 C 32.300781 61.5 32.570312 61.320312 32.6875 61.046875 C 38.148438 48.304688 48.304688 38.148438 61.046875 32.6875 C 61.320312 32.570312 61.5 32.300781 61.5 32 C 61.5 31.699219 61.320312 31.429688 61.046875 31.3125 Z M 43.078125 43.078125 C 38.480469 47.664062 34.734375 53.023438 32 58.910156 C 29.265625 53.023438 25.519531 47.664062 20.921875 43.078125 C 16.335938 38.480469 10.976562 34.734375 5.089844 32 C 10.976562 29.265625 16.335938 25.519531 20.921875 20.921875 C 25.519531 16.335938 29.265625 10.976562 32 5.089844 C 34.734375 10.976562 38.480469 16.335938 43.078125 20.921875 C 47.664062 25.519531 53.023438 29.265625 58.910156 32 C 53.023438 34.734375 47.664062 38.480469 43.078125 43.078125 Z M 43.078125 43.078125 "/>
</g>
</svg>
