<svg xmlns="http://www.w3.org/2000/svg" viewBox="0 0 50 50">
  <path d="M44.984375 6.96875C44.453125 6.984375 43.953125 7.203125 43.585938 7.585938L25 26.171875L6.414063 7.585938C6.035156 7.199219 5.519531 6.980469 4.976563 6.980469C4.164063 6.980469 3.433594 7.476563 3.128906 8.230469C2.820313 8.984375 3.003906 9.847656 3.585938 10.414063L25 31.828125L46.414063 10.414063C47.007813 9.84375 47.195313 8.964844 46.875 8.203125C46.558594 7.441406 45.808594 6.953125 44.984375 6.96875 Z M 44.984375 19.96875C44.453125 19.984375 43.953125 20.203125 43.585938 20.585938L25 39.171875L6.414063 20.585938C6.035156 20.199219 5.519531 19.980469 4.976563 19.980469C4.164063 19.980469 3.433594 20.476563 3.128906 21.230469C2.820313 21.984375 3.003906 22.847656 3.585938 23.414063L25 44.828125L46.414063 23.414063C47.007813 22.84375 47.195313 21.964844 46.875 21.203125C46.558594 20.441406 45.808594 19.953125 44.984375 19.96875Z" fill="#0C0C0C" />
</svg>