<?xml version="1.0" encoding="UTF-8"?>
<svg xmlns="http://www.w3.org/2000/svg" xmlns:xlink="http://www.w3.org/1999/xlink" viewBox="0 0 64 64" width="64px" height="64px">
<defs>
<linearGradient id="linear0" gradientUnits="userSpaceOnUse" x1="113.014572" y1="219.634033" x2="113.014572" y2="34.284908" gradientTransform="matrix(0.283186,0,0,0.283186,0,0)">
<stop offset="0.322" style="stop-color:rgb(78.823531%,3.529412%,7.843138%);stop-opacity:1;"/>
<stop offset="0.466" style="stop-color:rgb(96.470588%,19.607843%,27.843139%);stop-opacity:1;"/>
<stop offset="0.752" style="stop-color:rgb(96.470588%,19.607843%,27.843139%);stop-opacity:1;"/>
<stop offset="0.898" style="stop-color:rgb(96.470588%,19.607843%,27.843139%);stop-opacity:1;"/>
</linearGradient>
</defs>
<g id="surface66453885">
<path style=" stroke:none;fill-rule:nonzero;fill:url(#linear0);" d="M 43.898438 4.863281 C 39.445312 4.851562 35.152344 6.539062 31.902344 9.585938 C 24.945312 3.296875 14.285156 3.566406 7.652344 10.195312 C 0.792969 17.058594 0.792969 28.222656 7.652344 35.085938 L 31.488281 58.917969 C 31.628906 59.058594 31.820312 59.136719 32.019531 59.136719 C 32.21875 59.136719 32.410156 59.058594 32.550781 58.914062 L 56.34375 34.910156 C 61.378906 29.875 62.882812 22.304688 60.160156 15.730469 C 57.433594 9.152344 51.015625 4.863281 43.898438 4.863281 Z M 55.28125 33.851562 L 32.015625 57.324219 L 8.714844 34.027344 C 2.4375 27.746094 2.4375 17.53125 8.714844 11.257812 C 14.960938 5.003906 25.082031 4.960938 31.382812 11.15625 C 31.675781 11.445312 32.148438 11.441406 32.441406 11.152344 L 32.511719 11.078125 C 38.800781 4.792969 48.996094 4.792969 55.285156 11.082031 C 61.570312 17.371094 61.570312 27.566406 55.28125 33.851562 Z M 55.28125 33.851562 "/>
</g>
</svg>
