<?xml version="1.0" encoding="utf-8"?>
<svg width="1132px" height="657px" viewBox="0 0 1132 657" version="1.1" xmlns:xlink="http://www.w3.org/1999/xlink" xmlns="http://www.w3.org/2000/svg">
  <defs>
    <linearGradient x1="0.49997264" y1="1.0118223" x2="0.49997264" y2="0.122187026" id="gradient_1">
      <stop offset="0.322" stop-color="#4B4646" />
      <stop offset="0.46599996" stop-color="#8A8289" />
      <stop offset="0.752" stop-color="#8A8289" />
      <stop offset="0.898" stop-color="#8A8289" />
    </linearGradient>
    <linearGradient x1="0.5000003" y1="1.0118184" x2="0.5000003" y2="0.12218654" id="gradient_2">
      <stop offset="0.322" stop-color="#B2000A" />
      <stop offset="0.46599996" stop-color="#F9101E" />
      <stop offset="0.752" stop-color="#F9101E" />
      <stop offset="0.898" stop-color="#F9101E" />
    </linearGradient>
    <linearGradient x1="0.50000596" y1="1.0563915" x2="0.50000596" y2="0.089284554" id="gradient_3">
      <stop offset="0.322" stop-color="#C90914" />
      <stop offset="0.46599996" stop-color="#F63247" />
      <stop offset="0.752" stop-color="#F63247" />
      <stop offset="0.898" stop-color="#F63247" />
    </linearGradient>
    <linearGradient x1="0.5000802" y1="1.0118307" x2="0.5000802" y2="0.12218803" id="gradient_4">
      <stop offset="0.322" stop-color="#444444" />
      <stop offset="0.46599996" stop-color="#837A7A" />
      <stop offset="0.752" stop-color="#837A7A" />
      <stop offset="0.898" stop-color="#837A7A" />
    </linearGradient>
    <path d="M0 0L861 0L861 861L0 861L0 0Z" id="path_1" />
    <path d="M0 0L1067 0L1067 1067L0 1067L0 0Z" id="path_2" />
    <path d="M0 0L589 0L589 589L0 589L0 0Z" id="path_3" />
    <path d="M0 0L567 0L567 567L0 567L0 0Z" id="path_4" />
    <rect width="1132" height="657" id="artboard_1" />
    <clipPath id="clip_1">
      <use xlink:href="#artboard_1" clip-rule="evenodd" />
    </clipPath>
    <clipPath id="mask_1">
      <use xlink:href="#path_1" />
    </clipPath>
    <clipPath id="mask_2">
      <use xlink:href="#path_2" />
    </clipPath>
    <clipPath id="mask_3">
      <use xlink:href="#path_3" />
    </clipPath>
    <clipPath id="mask_4">
      <use xlink:href="#path_4" />
    </clipPath>
  </defs>
  <g id="Artboard" clip-path="url(#clip_1)">
    <use xlink:href="#artboard_1" stroke="none" fill="#F8F8F8" />
    <g id="spade" transform="translate(418.9997 58)">
      <path d="M0 0L861 0L861 861L0 861L0 0Z" id="Background" fill="none" fill-rule="evenodd" stroke="none" />
      <g clip-path="url(#mask_1)">
        <g id="surface36921495" transform="translate(70.41046 33.632812)">
          <path d="M367.027 2.94287C365.135 1.05103 362.56 0 359.88 0L359.827 0C357.147 0 354.572 1.10357 352.68 2.99542L63.0174 295.286C-15.5468 373.902 -21.38 499.395 49.6168 584.948C120.561 670.449 245.002 687.949 336.757 625.202L271.226 779.703C269.649 783.434 270.49 787.796 273.328 790.686C276.165 793.629 280.475 794.523 284.258 792.999C332.921 773.45 387.259 773.45 435.921 792.999C439.705 794.523 444.014 793.629 446.852 790.686C449.69 787.796 450.531 783.434 448.954 779.703L382.109 622.102C467.662 681.59 583.538 671.237 657.215 597.561C741.086 513.636 741.086 377.055 657.215 293.131L367.027 2.94287ZM298.657 766.776L360.09 621.892L421.522 766.776C381.373 755.267 338.807 755.267 298.657 766.776L298.657 766.776ZM642.921 583.267C567.615 658.625 445.696 659.571 369.234 585.421C367.448 583.687 365.083 582.636 362.613 582.531L360.721 582.478C357.883 582.373 355.151 583.424 353.154 585.421C303.913 634.924 231.97 654.316 164.547 636.291C97.0714 618.266 44.3624 565.609 26.3899 498.134C8.36482 430.658 27.8088 358.715 77.3121 309.527L359.88 24.3838L642.921 307.372C718.963 383.624 718.963 507.015 642.921 583.267L642.921 583.267Z" id="Shape" fill="url(#gradient_1)" fill-rule="evenodd" stroke="none" />
        </g>
      </g>
    </g>
    <g id="diamond" transform="translate(-348 -414)">
      <path d="M0 0L1067 0L1067 1067L0 1067L0 0Z" id="Background" fill="none" fill-rule="evenodd" stroke="none" />
      <g clip-path="url(#mask_2)">
        <g id="surface36916705" transform="translate(41.679688 41.679688)">
          <path d="M976.086 480.358C870.78 435.292 775.047 370.493 694.162 289.478C613.147 208.594 548.348 112.861 503.282 7.55444C501.328 2.99574 496.835 0 491.82 0C486.806 0 482.312 2.99574 480.358 7.55444C435.292 112.861 370.493 208.594 289.478 289.478C208.594 370.493 112.861 435.292 7.55444 480.358C2.99574 482.312 0 486.806 0 491.82C0 496.835 2.99574 501.328 7.55444 503.282C112.861 548.348 208.594 613.147 289.478 694.162C370.493 775.112 435.292 870.78 480.293 976.086C482.312 980.645 486.806 983.641 491.82 983.641C496.835 983.641 501.328 980.645 503.282 976.086C594.326 763.65 763.65 594.326 976.086 503.282C980.645 501.328 983.641 496.835 983.641 491.82C983.641 486.806 980.645 482.312 976.086 480.358L976.086 480.358ZM676.513 676.513C599.862 752.97 537.407 842.32 491.82 940.463C446.233 842.32 383.779 752.97 307.127 676.513C230.671 599.862 141.32 537.407 43.1776 491.82C141.32 446.233 230.671 383.779 307.127 307.127C383.779 230.671 446.233 141.32 491.82 43.1776C537.407 141.32 599.862 230.671 676.513 307.127C752.97 383.779 842.32 446.233 940.463 491.82C842.32 537.407 752.97 599.862 676.513 676.513L676.513 676.513Z" id="Shape" fill="url(#gradient_2)" fill-rule="evenodd" stroke="none" />
        </g>
      </g>
    </g>
    <g id="heart" transform="translate(1082 -470)">
      <path d="M0 0L589 0L589 589L0 589L0 0Z" id="Background" fill="none" fill-rule="evenodd" stroke="none" />
      <g clip-path="url(#mask_3)">
        <g id="surface66453885" transform="translate(23.079712 44.756805)">
          <path d="M380.923 0.000557326C339.94 -0.107292 300.432 15.423 270.522 43.4638C206.495 -14.4153 108.388 -11.9347 47.3458 49.0719C-15.7819 112.236 -15.7819 214.98 47.3458 278.143L266.711 497.473C268.005 498.767 269.767 499.486 271.6 499.486C273.433 499.486 275.195 498.767 276.489 497.437L495.459 276.526C541.798 230.187 555.639 160.516 530.582 100.013C505.489 39.4733 446.423 0.000557326 380.923 0.000557326L380.923 0.000557326ZM485.681 266.783L271.564 482.805L57.1241 268.401C-0.647097 210.594 -0.647097 116.585 57.1241 58.8502C114.608 1.29474 207.753 0.8993 265.74 57.9155C268.436 60.5758 272.786 60.5399 275.483 57.8796L276.13 57.1965C334.009 -0.646537 427.838 -0.646537 485.717 57.2325C543.56 115.112 543.56 208.94 485.681 266.783L485.681 266.783Z" id="Shape" fill="url(#gradient_3)" fill-rule="evenodd" stroke="none" />
        </g>
      </g>
    </g>
    <g id="club" transform="translate(1024 488)">
      <path d="M0 0L567 0L567 567L0 567L0 0Z" id="Background" fill="none" fill-rule="evenodd" stroke="none" />
      <g clip-path="url(#mask_4)">
        <g id="surface66480585" transform="translate(42.595703 22.148438)">
          <path d="M381.858 155.004C382.273 150.575 382.481 146.076 382.481 141.612C382.481 63.5037 318.977 0 240.904 0C162.831 0 99.3272 63.5037 99.3272 141.612C99.3272 146.076 99.5349 150.575 99.9501 155.004C45.8941 171.616 6.92673 218.82 0.835906 275.021C-5.28952 331.258 22.6383 385.694 71.8493 413.553C121.06 441.412 182.107 437.293 227.165 403.136L169.96 512.979C168.68 515.47 169.06 518.447 170.929 520.523C172.798 522.565 175.739 523.257 178.335 522.219C218.479 506.092 263.329 506.092 303.474 522.219C306.069 523.257 309.011 522.565 310.879 520.523C312.748 518.447 313.129 515.47 311.848 512.979L254.643 403.136C299.667 437.293 360.713 441.342 409.924 413.484C459.101 385.66 486.994 331.223 480.903 275.021C474.812 218.82 435.88 171.65 381.858 155.004L381.858 155.004ZM240.904 496.817C223.497 496.817 206.159 499.343 189.478 504.292L240.904 405.524L292.33 504.292C275.65 499.343 258.312 496.817 240.904 496.817L240.904 496.817ZM340.157 418.64C304.304 418.571 270.113 403.586 245.784 377.25C244.538 375.866 242.773 375.105 240.904 375.105C239.035 375.105 237.271 375.866 236.025 377.25C198.995 417.429 140.579 429.749 90.5025 407.947C40.3917 386.179 9.59153 335.03 13.7444 280.558C17.8626 226.087 56.0686 180.198 108.879 166.252C112.132 165.387 114.208 162.272 113.758 158.95C107.045 109.427 129.712 60.4929 171.829 33.6033C213.945 6.67914 267.863 6.67914 309.98 33.6033C352.096 60.4929 374.729 109.427 368.016 158.95C367.566 162.272 369.677 165.387 372.93 166.252C435.257 182.725 475.678 242.906 467.372 306.825C459.066 370.779 404.595 418.606 340.122 418.64L340.157 418.64Z" id="Shape" fill="url(#gradient_4)" fill-rule="evenodd" stroke="none" />
        </g>
      </g>
    </g>
  </g>
</svg>