<svg xmlns="http://www.w3.org/2000/svg" version="1.1" viewBox="0 0 1519 725" width="1519" height="725">
<rect fill="rgb(248,248,248)" x="0" y="0" width="1519" height="725"/><defs/><!--ITEM: Upload 1--><g transform="translate(-50.0 158.0) rotate(0.0 344.0 344.0)  scale(10.75 10.75)"><svg width="64.0" height="64.0" viewBox="0.0 0.0 64.0 64.0"><defs>
<linearGradient id="linear0-i1" gradientUnits="userSpaceOnUse" x1="112.986763" y1="219.634033" x2="112.986763" y2="34.284908" gradientTransform="matrix(0.283186,0,0,0.283186,0,0)">
<stop offset="0.322" style="stop-color:rgb(29.411766%,27.450982%,27.450982%);stop-opacity:1;"/>
<stop offset="0.466" style="stop-color:rgb(54.11765%,50.980395%,53.725493%);stop-opacity:1;"/>
<stop offset="0.752" style="stop-color:rgb(54.11765%,50.980395%,53.725493%);stop-opacity:1;"/>
<stop offset="0.898" style="stop-color:rgb(54.11765%,50.980395%,53.725493%);stop-opacity:1;"/>
</linearGradient>
</defs>
<g id="surface36921495-i1">
<path style=" stroke:none;fill-rule:nonzero;fill:url(#linear0-i1);" d="M 32.515625 2.71875 C 32.375 2.578125 32.183594 2.5 31.984375 2.5 L 31.980469 2.5 C 31.78125 2.5 31.589844 2.582031 31.449219 2.722656 L 9.917969 24.449219 C 4.078125 30.292969 3.644531 39.621094 8.921875 45.980469 C 14.195312 52.335938 23.445312 53.636719 30.265625 48.972656 L 25.394531 60.457031 C 25.277344 60.734375 25.339844 61.058594 25.550781 61.273438 C 25.761719 61.492188 26.082031 61.558594 26.363281 61.445312 C 29.980469 59.992188 34.019531 59.992188 37.636719 61.445312 C 37.917969 61.558594 38.238281 61.492188 38.449219 61.273438 C 38.660156 61.058594 38.722656 60.734375 38.605469 60.457031 L 33.636719 48.742188 C 39.996094 53.164062 48.609375 52.394531 54.085938 46.917969 C 60.320312 40.679688 60.320312 30.527344 54.085938 24.289062 Z M 27.433594 59.496094 L 32 48.726562 L 36.566406 59.496094 C 33.582031 58.640625 30.417969 58.640625 27.433594 59.496094 Z M 53.023438 45.855469 C 47.425781 51.457031 38.363281 51.527344 32.679688 46.015625 C 32.546875 45.886719 32.371094 45.808594 32.1875 45.800781 L 32.046875 45.796875 C 31.835938 45.789062 31.632812 45.867188 31.484375 46.015625 C 27.824219 49.695312 22.476562 51.136719 17.464844 49.796875 C 12.449219 48.457031 8.53125 44.542969 7.195312 39.527344 C 5.855469 34.511719 7.300781 29.164062 10.980469 25.507812 L 31.984375 4.3125 L 53.023438 25.347656 C 58.675781 31.015625 58.675781 40.1875 53.023438 45.855469 Z M 53.023438 45.855469 "/>
</g>
</svg></g></svg>