<?xml version="1.0" encoding="UTF-8"?>
<svg xmlns="http://www.w3.org/2000/svg" xmlns:xlink="http://www.w3.org/1999/xlink" viewBox="0 0 50 50" width="50px" height="50px">
<g id="surface66630354">
<path style=" stroke:none;fill-rule:nonzero;fill:rgb(0%,0%,0%);fill-opacity:1;" d="M 28.957031 6 C 28.789062 6.007812 28.621094 6.058594 28.476562 6.148438 C 28.179688 6.332031 28 6.652344 28 7 L 28 10.03125 C 27.835938 10.011719 27.667969 10 27.5 10 C 26.121094 10 25 10.671875 25 11.5 C 25 12.328125 26.121094 13 27.5 13 C 28.414062 13 29.257812 12.699219 29.695312 12.214844 C 29.703125 12.207031 29.710938 12.199219 29.71875 12.191406 C 29.785156 12.113281 29.839844 12.03125 29.882812 11.945312 C 29.902344 11.910156 29.917969 11.875 29.933594 11.835938 C 29.972656 11.730469 29.992188 11.625 29.996094 11.515625 C 29.996094 11.511719 30 11.507812 30 11.5 L 30 8.617188 L 30.554688 8.894531 C 31.046875 9.140625 31.648438 8.941406 31.894531 8.445312 C 32.140625 7.953125 31.941406 7.351562 31.449219 7.105469 L 29.449219 6.105469 C 29.292969 6.027344 29.121094 5.992188 28.957031 6 Z M 22.984375 13.988281 C 22.433594 13.996094 21.992188 14.449219 22 15 C 22 15.472656 21.855469 15.730469 21.511719 16.074219 C 21.167969 16.417969 20.609375 16.765625 19.984375 17.140625 C 19.359375 17.515625 18.667969 17.917969 18.074219 18.511719 C 17.480469 19.105469 17 19.972656 17 21 C 16.996094 21.359375 17.183594 21.695312 17.496094 21.878906 C 17.808594 22.058594 18.191406 22.058594 18.503906 21.878906 C 18.816406 21.695312 19.003906 21.359375 19 21 C 19 20.527344 19.144531 20.269531 19.488281 19.925781 C 19.832031 19.582031 20.386719 19.234375 21.011719 18.859375 C 21.636719 18.484375 22.332031 18.082031 22.925781 17.488281 C 23.519531 16.894531 24 16.027344 24 15 C 24.003906 14.730469 23.898438 14.46875 23.707031 14.277344 C 23.515625 14.085938 23.253906 13.980469 22.984375 13.988281 Z M 11 22 C 8.238281 22 6 24.238281 6 27 C 6 27.75 6.171875 28.460938 6.460938 29.097656 L 5.351562 31.117188 L 5.261719 31.300781 L 5.101562 31.570312 L 5.101562 31.582031 L 5.027344 31.710938 L 4.800781 32.132812 C 4.332031 32.949219 3.878906 33.75 3.609375 34.269531 C 3.378906 34.679688 3.191406 35.03125 3.007812 35.339844 C 2.371094 36.480469 1.988281 37.160156 2 38.492188 C 2.019531 39.921875 3.21875 41 4.867188 41 L 4.878906 41 L 12.75 40 L 26.058594 41 L 27.160156 41 C 29.789062 41 32.179688 39.46875 33.230469 37.109375 L 36.007812 30.902344 C 36.25 30.351562 36.808594 30 37.417969 30 L 42.917969 30 C 43.800781 30 44.632812 29.628906 45.210938 28.992188 C 45.78125 28.359375 46.050781 27.539062 45.960938 26.691406 C 45.8125 25.179688 44.410156 24 42.777344 24 L 33.320312 24 C 32.441406 24 31.640625 24.441406 31.167969 25.167969 L 26.820312 31.980469 L 22.910156 31.628906 L 22.429688 31.589844 L 21.277344 31.488281 L 18.128906 31.210938 L 16.679688 31.089844 C 16.679688 31.089844 16.679688 31.097656 16.660156 31.097656 C 16.308594 31.597656 15.890625 32.039062 15.410156 32.429688 C 14.359375 33.289062 13.0625 33.851562 11.628906 33.960938 L 11.179688 34.847656 L 10.859375 35.488281 C 10.679688 35.839844 10.332031 36.039062 9.960938 36.039062 C 9.8125 36.039062 9.660156 36 9.507812 35.929688 C 9.019531 35.679688 8.820312 35.078125 9.070312 34.589844 L 9.109375 34.507812 L 9.199219 34.320312 L 9.25 34.238281 L 9.46875 33.828125 L 10.488281 31.96875 C 10.660156 31.992188 10.828125 32 11 32 C 11.511719 32 12 31.917969 12.46875 31.789062 C 13.140625 31.578125 13.75 31.230469 14.269531 30.777344 C 14.53125 30.550781 14.78125 30.289062 14.988281 30.007812 C 15.621094 29.167969 16 28.128906 16 27 C 16 26.738281 15.980469 26.488281 15.9375 26.238281 C 15.578125 23.839844 13.5 22 11 22 Z M 17.988281 26.832031 C 18 26.878906 18 26.941406 18 27 C 18 28.128906 17.730469 29.199219 17.238281 30.152344 L 18.570312 30.269531 L 22.429688 30.601562 C 22.371094 29.121094 21.332031 27.8125 19.878906 27.382812 L 18.929688 27.101562 Z M 38.550781 32 C 38.367188 32 38.199219 32.105469 38.109375 32.269531 L 37.058594 34.269531 C 36.953125 34.464844 36.996094 34.707031 37.15625 34.863281 L 42.664062 40.117188 C 43.273438 40.691406 44.070312 40.984375 44.867188 40.984375 C 45.667969 40.984375 46.464844 40.691406 47.074219 40.117188 C 47.671875 39.546875 48 38.792969 48 37.984375 C 48 37.175781 47.671875 36.421875 47.070312 35.855469 L 43.101562 32.136719 C 43.011719 32.046875 42.890625 32 42.761719 32 Z M 38.550781 32 "/>
</g>
</svg>
