<svg xmlns="http://www.w3.org/2000/svg" version="1.1" viewBox="0 0 440 180" width="440" height="180">
<rect fill="rgb(255,255,255)" x="0" y="0" width="440" height="180"/><defs/><!--ITEM: Upload 1--><g transform="translate(275.0 7.0) rotate(0.0 82.5 82.5)  scale(2.578125 2.578125)"><svg width="64.0" height="64.0" viewBox="0.0 0.0 64.0 64.0"><defs>
<linearGradient id="linear0-i1" gradientUnits="userSpaceOnUse" x1="113" y1="219.634033" x2="113" y2="34.284908" gradientTransform="matrix(0.283186,0,0,0.283186,0,0)">
<stop offset="0.322" style="stop-color:rgb(69.803923%,0%,3.921569%);stop-opacity:1;"/>
<stop offset="0.466" style="stop-color:rgb(97.647059%,6.27451%,11.764706%);stop-opacity:1;"/>
<stop offset="0.752" style="stop-color:rgb(97.647059%,6.27451%,11.764706%);stop-opacity:1;"/>
<stop offset="0.898" style="stop-color:rgb(97.647059%,6.27451%,11.764706%);stop-opacity:1;"/>
</linearGradient>
</defs>
<g id="surface36916705-i1">
<path style=" stroke:none;fill-rule:nonzero;fill:url(#linear0-i1);" d="M 61.046875 31.3125 C 54.730469 28.609375 48.988281 24.722656 44.136719 19.863281 C 39.277344 15.011719 35.390625 9.269531 32.6875 2.953125 C 32.570312 2.679688 32.300781 2.5 32 2.5 C 31.699219 2.5 31.429688 2.679688 31.3125 2.953125 C 28.609375 9.269531 24.722656 15.011719 19.863281 19.863281 C 15.011719 24.722656 9.269531 28.609375 2.953125 31.3125 C 2.679688 31.429688 2.5 31.699219 2.5 32 C 2.5 32.300781 2.679688 32.570312 2.953125 32.6875 C 9.269531 35.390625 15.011719 39.277344 19.863281 44.136719 C 24.722656 48.992188 28.609375 54.730469 31.308594 61.046875 C 31.429688 61.320312 31.699219 61.5 32 61.5 C 32.300781 61.5 32.570312 61.320312 32.6875 61.046875 C 38.148438 48.304688 48.304688 38.148438 61.046875 32.6875 C 61.320312 32.570312 61.5 32.300781 61.5 32 C 61.5 31.699219 61.320312 31.429688 61.046875 31.3125 Z M 43.078125 43.078125 C 38.480469 47.664062 34.734375 53.023438 32 58.910156 C 29.265625 53.023438 25.519531 47.664062 20.921875 43.078125 C 16.335938 38.480469 10.976562 34.734375 5.089844 32 C 10.976562 29.265625 16.335938 25.519531 20.921875 20.921875 C 25.519531 16.335938 29.265625 10.976562 32 5.089844 C 34.734375 10.976562 38.480469 16.335938 43.078125 20.921875 C 47.664062 25.519531 53.023438 29.265625 58.910156 32 C 53.023438 34.734375 47.664062 38.480469 43.078125 43.078125 Z M 43.078125 43.078125 "/>
</g>
</svg></g><!--ITEM: Upload 2--><g transform="translate(185.0 7.0) rotate(0.0 79.5 79.5)  scale(2.484375 2.484375)"><svg width="64.0" height="64.0" viewBox="0.0 0.0 64.0 64.0"><defs>
<linearGradient id="linear0-i2" gradientUnits="userSpaceOnUse" x1="112.986763" y1="219.634033" x2="112.986763" y2="34.284908" gradientTransform="matrix(0.283186,0,0,0.283186,0,0)">
<stop offset="0.322" style="stop-color:rgb(29.411766%,27.450982%,27.450982%);stop-opacity:1;"/>
<stop offset="0.466" style="stop-color:rgb(54.11765%,50.980395%,53.725493%);stop-opacity:1;"/>
<stop offset="0.752" style="stop-color:rgb(54.11765%,50.980395%,53.725493%);stop-opacity:1;"/>
<stop offset="0.898" style="stop-color:rgb(54.11765%,50.980395%,53.725493%);stop-opacity:1;"/>
</linearGradient>
</defs>
<g id="surface36921495-i2">
<path style=" stroke:none;fill-rule:nonzero;fill:url(#linear0-i2);" d="M 32.515625 2.71875 C 32.375 2.578125 32.183594 2.5 31.984375 2.5 L 31.980469 2.5 C 31.78125 2.5 31.589844 2.582031 31.449219 2.722656 L 9.917969 24.449219 C 4.078125 30.292969 3.644531 39.621094 8.921875 45.980469 C 14.195312 52.335938 23.445312 53.636719 30.265625 48.972656 L 25.394531 60.457031 C 25.277344 60.734375 25.339844 61.058594 25.550781 61.273438 C 25.761719 61.492188 26.082031 61.558594 26.363281 61.445312 C 29.980469 59.992188 34.019531 59.992188 37.636719 61.445312 C 37.917969 61.558594 38.238281 61.492188 38.449219 61.273438 C 38.660156 61.058594 38.722656 60.734375 38.605469 60.457031 L 33.636719 48.742188 C 39.996094 53.164062 48.609375 52.394531 54.085938 46.917969 C 60.320312 40.679688 60.320312 30.527344 54.085938 24.289062 Z M 27.433594 59.496094 L 32 48.726562 L 36.566406 59.496094 C 33.582031 58.640625 30.417969 58.640625 27.433594 59.496094 Z M 53.023438 45.855469 C 47.425781 51.457031 38.363281 51.527344 32.679688 46.015625 C 32.546875 45.886719 32.371094 45.808594 32.1875 45.800781 L 32.046875 45.796875 C 31.835938 45.789062 31.632812 45.867188 31.484375 46.015625 C 27.824219 49.695312 22.476562 51.136719 17.464844 49.796875 C 12.449219 48.457031 8.53125 44.542969 7.195312 39.527344 C 5.855469 34.511719 7.300781 29.164062 10.980469 25.507812 L 31.984375 4.3125 L 53.023438 25.347656 C 58.675781 31.015625 58.675781 40.1875 53.023438 45.855469 Z M 53.023438 45.855469 "/>
</g>
</svg></g><!--ITEM: Upload 3--><g transform="translate(95.0 18.0) rotate(0.0 76.0 76.0)  scale(2.375 2.375)"><svg width="64.0" height="64.0" viewBox="0.0 0.0 64.0 64.0"><defs>
<linearGradient id="linear0-i3" gradientUnits="userSpaceOnUse" x1="113.014572" y1="219.634033" x2="113.014572" y2="34.284908" gradientTransform="matrix(0.283186,0,0,0.283186,0,0)">
<stop offset="0.322" style="stop-color:rgb(78.823531%,3.529412%,7.843138%);stop-opacity:1;"/>
<stop offset="0.466" style="stop-color:rgb(96.470588%,19.607843%,27.843139%);stop-opacity:1;"/>
<stop offset="0.752" style="stop-color:rgb(96.470588%,19.607843%,27.843139%);stop-opacity:1;"/>
<stop offset="0.898" style="stop-color:rgb(96.470588%,19.607843%,27.843139%);stop-opacity:1;"/>
</linearGradient>
</defs>
<g id="surface66453885-i3">
<path style=" stroke:none;fill-rule:nonzero;fill:url(#linear0-i3);" d="M 43.898438 4.863281 C 39.445312 4.851562 35.152344 6.539062 31.902344 9.585938 C 24.945312 3.296875 14.285156 3.566406 7.652344 10.195312 C 0.792969 17.058594 0.792969 28.222656 7.652344 35.085938 L 31.488281 58.917969 C 31.628906 59.058594 31.820312 59.136719 32.019531 59.136719 C 32.21875 59.136719 32.410156 59.058594 32.550781 58.914062 L 56.34375 34.910156 C 61.378906 29.875 62.882812 22.304688 60.160156 15.730469 C 57.433594 9.152344 51.015625 4.863281 43.898438 4.863281 Z M 55.28125 33.851562 L 32.015625 57.324219 L 8.714844 34.027344 C 2.4375 27.746094 2.4375 17.53125 8.714844 11.257812 C 14.960938 5.003906 25.082031 4.960938 31.382812 11.15625 C 31.675781 11.445312 32.148438 11.441406 32.441406 11.152344 L 32.511719 11.078125 C 38.800781 4.792969 48.996094 4.792969 55.285156 11.082031 C 61.570312 17.371094 61.570312 27.566406 55.28125 33.851562 Z M 55.28125 33.851562 "/>
</g>
</svg></g><!--ITEM: Upload 4--><g transform="translate(-8.0 7.0) rotate(0.0 81.5 81.5)  scale(2.546875 2.546875)"><svg width="64.0" height="64.0" viewBox="0.0 0.0 64.0 64.0"><defs>
<linearGradient id="linear0-i4" gradientUnits="userSpaceOnUse" x1="113" y1="219.634033" x2="113" y2="34.284908" gradientTransform="matrix(0.283186,0,0,0.283186,0,0)">
<stop offset="0.322" style="stop-color:rgb(26.666668%,26.666668%,26.666668%);stop-opacity:1;"/>
<stop offset="0.466" style="stop-color:rgb(51.372552%,47.843137%,47.843137%);stop-opacity:1;"/>
<stop offset="0.752" style="stop-color:rgb(51.372552%,47.843137%,47.843137%);stop-opacity:1;"/>
<stop offset="0.898" style="stop-color:rgb(51.372552%,47.843137%,47.843137%);stop-opacity:1;"/>
</linearGradient>
</defs>
<g id="surface66480585-i4">
<path style=" stroke:none;fill-rule:nonzero;fill:url(#linear0-i4);" d="M 47.910156 19.996094 C 47.957031 19.496094 47.980469 18.988281 47.980469 18.484375 C 47.980469 9.667969 40.8125 2.5 32 2.5 C 23.1875 2.5 16.019531 9.667969 16.019531 18.484375 C 16.019531 18.988281 16.042969 19.496094 16.089844 19.996094 C 9.988281 21.871094 5.589844 27.199219 4.902344 33.542969 C 4.210938 39.890625 7.363281 46.035156 12.917969 49.179688 C 18.472656 52.324219 25.363281 51.859375 30.449219 48.003906 L 23.992188 60.402344 C 23.847656 60.683594 23.890625 61.019531 24.101562 61.253906 C 24.3125 61.484375 24.644531 61.5625 24.9375 61.445312 C 29.46875 59.625 34.53125 59.625 39.0625 61.445312 C 39.355469 61.5625 39.6875 61.484375 39.898438 61.253906 C 40.109375 61.019531 40.152344 60.683594 40.007812 60.402344 L 33.550781 48.003906 C 38.632812 51.859375 45.523438 52.316406 51.078125 49.171875 C 56.628906 46.03125 59.777344 39.886719 59.089844 33.542969 C 58.402344 27.199219 54.007812 21.875 47.910156 19.996094 Z M 32 58.578125 C 30.035156 58.578125 28.078125 58.863281 26.195312 59.421875 L 32 48.273438 L 37.804688 59.421875 C 35.921875 58.863281 33.964844 58.578125 32 58.578125 Z M 43.203125 49.753906 C 39.15625 49.746094 35.296875 48.054688 32.550781 45.082031 C 32.410156 44.925781 32.210938 44.839844 32 44.839844 C 31.789062 44.839844 31.589844 44.925781 31.449219 45.082031 C 27.269531 49.617188 20.675781 51.007812 15.023438 48.546875 C 9.367188 46.089844 5.890625 40.316406 6.359375 34.167969 C 6.824219 28.019531 11.136719 22.839844 17.097656 21.265625 C 17.464844 21.167969 17.699219 20.816406 17.648438 20.441406 C 16.890625 14.851562 19.449219 9.328125 24.203125 6.292969 C 28.957031 3.253906 35.042969 3.253906 39.796875 6.292969 C 44.550781 9.328125 47.105469 14.851562 46.347656 20.441406 C 46.296875 20.816406 46.535156 21.167969 46.902344 21.265625 C 53.9375 23.125 58.5 29.917969 57.5625 37.132812 C 56.625 44.351562 50.476562 49.75 43.199219 49.753906 Z M 43.203125 49.753906 "/>
</g>
</svg></g></svg>