<svg xmlns="http://www.w3.org/2000/svg" viewBox="0 0 48 48">
  <path d="M24.005,6.006c0.208,0,0.518,0.049,0.818,0.281c9.599,7.45,15.634,15.032,16.142,20.281 c0.182,1.882-0.316,3.427-1.569,4.861c-0.776,0.889-1.799,1.587-2.96,2.019c-0.978,0.364-1.963,0.549-2.93,0.549 c-1.386,0-2.744-0.387-3.925-1.119c-0.487-0.302-1.035-0.45-1.579-0.45c-0.724,0-1.444,0.262-2.01,0.772 c-0.991,0.894-1.273,2.336-0.69,3.537L27.853,42h-7.705l2.55-5.25c0.583-1.201,0.303-2.643-0.688-3.537 c-0.566-0.511-1.286-0.774-2.011-0.774c-0.544,0-1.091,0.148-1.577,0.449c-1.176,0.727-2.532,1.112-3.921,1.112 c-1.26,0-2.538-0.308-3.801-0.916c-1.17-0.563-2.105-1.352-2.705-2.282c-4.025-6.239,5.188-16.745,15.153-24.497 C23.465,6.058,23.789,6.006,24.005,6.006 M24.005,3.006c-0.951,0-1.904,0.312-2.7,0.931C14.792,9.004-0.843,22.638,5.474,32.428 c0.95,1.472,2.354,2.602,3.924,3.358c1.736,0.836,3.464,1.213,5.102,1.213c2.017,0,3.9-0.571,5.499-1.56l-2.631,5.417 C16.313,42.702,17.647,45,19.774,45h8.453c2.127,0,3.461-2.298,2.405-4.145L28,35.428c1.604,0.994,3.487,1.569,5.506,1.569 c1.283,0,2.62-0.232,3.977-0.737c1.595-0.594,3.049-1.57,4.173-2.857c8.471-9.702-8.23-24.236-14.993-29.486 C25.878,3.308,24.942,3.006,24.005,3.006L24.005,3.006z" fill="#AF081B" />
</svg>