<?xml version="1.0" encoding="UTF-8"?>
<svg xmlns="http://www.w3.org/2000/svg" xmlns:xlink="http://www.w3.org/1999/xlink" viewBox="0 0 32 32" width="32px" height="32px">
<g id="surface491354">
<path style=" stroke:none;fill-rule:nonzero;fill:rgb(20%,20%,20%);fill-opacity:1;" d="M 27.734375 11.199219 C 27.734375 11.054688 27.671875 10.914062 27.566406 10.8125 L 16.367188 0.148438 C 16.160156 -0.0507812 15.839844 -0.0507812 15.632812 0.148438 L 4.433594 10.8125 C 4.328125 10.914062 4.265625 11.054688 4.265625 11.199219 L 4.265625 17.601562 C 4.265625 17.8125 4.394531 18.007812 4.589844 18.089844 C 4.785156 18.175781 5.011719 18.132812 5.167969 17.988281 L 16 7.667969 L 26.832031 17.988281 C 26.933594 18.082031 27.066406 18.132812 27.199219 18.132812 C 27.269531 18.132812 27.34375 18.121094 27.410156 18.089844 C 27.605469 18.007812 27.734375 17.8125 27.734375 17.601562 Z M 26.667969 16.355469 L 16.367188 6.546875 C 16.265625 6.449219 16.132812 6.398438 16 6.398438 C 15.867188 6.398438 15.734375 6.449219 15.632812 6.546875 L 5.332031 16.355469 L 5.332031 11.429688 L 16 1.269531 L 26.667969 11.429688 Z M 26.667969 16.355469 "/>
<path style=" stroke:none;fill-rule:nonzero;fill:rgb(20%,20%,20%);fill-opacity:1;" d="M 15.632812 14.015625 L 4.433594 24.679688 C 4.328125 24.78125 4.265625 24.921875 4.265625 25.066406 L 4.265625 31.464844 C 4.265625 31.679688 4.394531 31.871094 4.589844 31.957031 C 4.785156 32.042969 5.011719 32 5.167969 31.851562 L 16 21.535156 L 26.832031 31.851562 C 26.933594 31.949219 27.066406 32 27.199219 32 C 27.269531 32 27.34375 31.984375 27.410156 31.957031 C 27.605469 31.871094 27.734375 31.679688 27.734375 31.464844 L 27.734375 25.066406 C 27.734375 24.921875 27.671875 24.78125 27.566406 24.679688 L 16.367188 14.015625 C 16.160156 13.816406 15.839844 13.816406 15.632812 14.015625 Z M 26.667969 30.222656 L 16.367188 20.414062 C 16.265625 20.316406 16.132812 20.265625 16 20.265625 C 15.867188 20.265625 15.734375 20.316406 15.632812 20.414062 L 5.332031 30.222656 L 5.332031 25.296875 L 16 15.136719 L 26.667969 25.296875 Z M 26.667969 30.222656 "/>
</g>
</svg>
