<svg xmlns="http://www.w3.org/2000/svg" viewBox="0 0 100 100">
  <path d="M49.9375 17.390625C49.60075 17.390625 49.264766 17.557125 49.072266 17.890625L47.226562 21.085938L44.515625 25.779297L49.9375 25.779297L55.357422 25.779297L54.107422 23.613281L54.099609 23.619141C54.010609 23.479141 53.863547 23.380859 53.685547 23.380859C53.409547 23.380859 53.185547 23.604859 53.185547 23.880859C53.185547 23.964859 53.211047 24.041328 53.248047 24.111328L53.242188 24.113281L53.626953 24.779297L49.9375 24.779297L46.248047 24.779297L48.09375 21.585938L49.9375 18.390625L50.371094 19.140625L50.378906 19.136719C50.465906 19.284719 50.620687 19.388672 50.804688 19.388672C51.080688 19.388672 51.304688 19.164672 51.304688 18.888672C51.304688 18.797672 51.272469 18.718531 51.230469 18.644531L51.236328 18.640625L50.804688 17.890625C50.612188 17.557125 50.27425 17.390625 49.9375 17.390625 z M 55.357422 25.779297L52.646484 30.474609L49.9375 35.167969L47.226562 30.474609L44.515625 25.779297L41.804688 30.474609L39.958984 33.669922C39.573984 34.336922 40.054219 35.169922 40.824219 35.169922L41.591797 35.169922L41.59375 35.169922L41.609375 35.169922L41.609375 35.167969C41.877375 35.158969 42.091797 34.939922 42.091797 34.669922C42.091797 34.399922 41.877375 34.183828 41.609375 34.173828L41.609375 34.169922L40.824219 34.169922L42.669922 30.974609L44.515625 27.779297L46.359375 30.974609L48.205078 34.169922L47.449219 34.169922L47.449219 34.173828C47.180219 34.181828 46.964844 34.398922 46.964844 34.669922C46.964844 34.940922 47.180219 35.160969 47.449219 35.167969L47.449219 35.169922L47.462891 35.169922L47.464844 35.169922L49.935547 35.169922L49.9375 35.169922L55.357422 35.169922L59.046875 35.169922C59.816875 35.169922 60.297109 34.336922 59.912109 33.669922L58.066406 30.474609L55.357422 25.779297 z M 51.972656 20.515625C51.908172 20.523266 51.843203 20.543875 51.783203 20.578125C51.543203 20.715125 51.460656 21.019766 51.597656 21.259766L52.011719 21.988281C52.148719 22.229281 52.453359 22.313734 52.693359 22.177734C52.933359 22.040734 53.017859 21.734141 52.880859 21.494141L52.466797 20.765625C52.364047 20.585625 52.166109 20.492703 51.972656 20.515625 z M 55.357422 27.779297L57.203125 30.974609L59.048828 34.169922L55.359375 34.169922L51.669922 34.169922L53.515625 30.974609L55.357422 27.779297 z M 1.0253906 33.064453C0.84939062 33.071328 0.67498437 33.124656 0.52148438 33.222656C0.21448437 33.419656 0.039453125 33.769766 0.064453125 34.134766C0.088453125 34.471766 0.7265625 42.44125 7.3515625 45.03125C11.973562 46.83825 18.328203 47.8665 23.408203 48.4375C19.134203 48.6695 13.649188 48.596953 8.8671875 47.376953L7.3691406 46.996094C7.0291406 46.910094 6.671875 47.005953 6.421875 47.251953C6.171875 47.496953 6.0693906 47.854312 6.1503906 48.195312L6.5058594 49.699219C7.0928594 52.175219 9.57925 56.857422 14.78125 56.857422C17.88925 56.857422 23.276328 55.881406 27.236328 55.066406C24.664328 56.337406 21.195859 57.599859 17.380859 57.755859L15.679688 57.824219C15.314687 57.839219 14.987219 58.051906 14.824219 58.378906C14.661219 58.705906 14.690437 59.094531 14.898438 59.394531L15.871094 60.794922C16.131094 61.165922 18.532859 64.425781 22.755859 64.425781C23.258859 64.425781 23.774062 64.37625 24.289062 64.28125C26.720063 63.83025 29.203469 62.374 31.230469 60.875C30.000469 62.663 28.778188 64.415141 28.242188 65.119141L27.376953 66.253906C27.172953 66.521906 27.118469 66.875359 27.230469 67.193359C27.343469 67.511359 27.607547 67.750078 27.935547 67.830078L29.320312 68.169922C29.568312 68.230922 30.465406 68.429688 31.566406 68.429688C33.390406 68.429688 34.854781 67.877031 35.800781 66.832031C36.796781 65.731031 38.239187 62.816891 39.367188 60.337891C40.319187 60.332891 41.216219 60.036609 41.949219 59.474609C42.775219 58.840609 43.311922 57.937047 43.419922 56.998047C43.651922 54.991047 43.222781 52.910156 38.550781 51.285156C36.587781 50.602156 35.354203 48.097344 35.408203 44.902344C35.458203 41.969344 36.999672 39.77 37.013672 39.75C37.267672 39.4 37.264766 38.926172 37.009766 38.576172C36.753766 38.226172 36.303578 38.080844 35.892578 38.214844C35.745578 38.262844 32.468656 39.363766 30.472656 42.634766C24.861656 41.650766 12.210062 38.950594 1.5390625 33.183594C1.3785625 33.098094 1.2013906 33.057578 1.0253906 33.064453 z M 98.976562 33.064453C98.800688 33.057578 98.623391 33.097594 98.462891 33.183594C87.791891 38.950594 75.138344 41.651766 69.527344 42.634766C67.531344 39.362766 64.256375 38.262844 64.109375 38.214844C63.698375 38.080844 63.246234 38.226172 62.990234 38.576172C62.735234 38.925172 62.735281 39.399 62.988281 39.75C63.002281 39.77 64.54375 41.969344 64.59375 44.902344C64.64775 48.097344 63.414172 50.602156 61.451172 51.285156C56.778172 52.910156 56.348078 54.991047 56.580078 56.998047C56.688078 57.938047 57.224781 58.841609 58.050781 59.474609C58.783781 60.036609 59.682766 60.332891 60.634766 60.337891C61.762766 62.815891 63.203219 65.731031 64.199219 66.832031C65.144219 67.877031 66.608594 68.428734 68.433594 68.427734C69.534594 68.427734 70.430688 68.228969 70.679688 68.167969L72.064453 67.830078C72.392453 67.750078 72.658484 67.509406 72.771484 67.191406C72.884484 66.874406 72.828047 66.521906 72.623047 66.253906L71.759766 65.117188C71.223766 64.413188 70.001484 62.661047 68.771484 60.873047C70.798484 62.372047 73.281891 63.82925 75.712891 64.28125C76.226891 64.37625 76.741141 64.423828 77.244141 64.423828C81.467141 64.423828 83.868906 61.166922 84.128906 60.794922L85.101562 59.394531C85.309563 59.094531 85.338781 58.705906 85.175781 58.378906C85.012781 58.051906 84.685312 57.839219 84.320312 57.824219L82.619141 57.755859C78.804141 57.599859 75.338625 56.335453 72.765625 55.064453C76.726625 55.880453 82.112703 56.855469 85.220703 56.855469C90.422703 56.855469 92.907141 52.173266 93.494141 49.697266L93.851562 48.195312C93.932563 47.854313 93.828125 47.496953 93.578125 47.251953C93.329125 47.006953 92.970859 46.909141 92.630859 46.994141L91.134766 47.376953C86.352766 48.596953 80.864797 48.667547 76.591797 48.435547C81.671797 47.864547 88.026438 46.83825 92.648438 45.03125C99.272437 42.44125 99.911547 34.472766 99.935547 34.134766C99.960547 33.770766 99.787469 33.420656 99.480469 33.222656C99.326469 33.124156 99.152437 33.071328 98.976562 33.064453 z M 44.095703 34.169922C43.819703 34.169922 43.595703 34.393922 43.595703 34.669922C43.595703 34.945922 43.819703 35.169922 44.095703 35.169922L44.935547 35.169922C45.211547 35.169922 45.435547 34.945922 45.435547 34.669922C45.435547 34.393922 45.211547 34.169922 44.935547 34.169922L44.095703 34.169922 z M 2.4042969 35.888672C13.391297 41.385672 25.815984 43.884563 30.833984 44.726562C31.262984 44.795563 31.691625 44.583312 31.890625 44.195312C32.448625 43.105313 33.2005 42.270391 33.9375 41.650391C33.6495 42.574391 33.429203 43.666141 33.408203 44.869141C33.339203 48.944141 35.099578 52.203781 37.892578 53.175781C41.695578 54.498781 41.548641 55.758484 41.431641 56.771484C41.386641 57.163484 41.118422 57.591672 40.732422 57.888672C40.389422 58.151672 39.800187 58.435313 38.992188 58.320312C38.957188 58.312312 38.903188 58.300875 38.867188 58.296875C38.437187 58.242875 38.010078 58.479859 37.830078 58.880859C36.318078 62.260859 35.004406 64.730234 34.316406 65.490234C33.613406 66.266234 32.433406 66.429688 31.566406 66.429688C30.799406 66.429688 30.153531 66.307 29.894531 66.25C30.942531 64.856 33.930578 60.484703 35.642578 57.970703C35.944578 57.526703 35.843109 56.924469 35.412109 56.605469C35.242109 56.479469 35.071344 56.345078 34.902344 56.205078C34.510344 55.879078 33.933406 55.900766 33.566406 56.259766C31.946406 57.843766 27.762734 61.604406 23.927734 62.316406C23.532734 62.389406 23.140766 62.427734 22.759766 62.427734C19.806766 62.427734 17.969891 60.25 17.587891 59.75C24.290891 59.438 29.928781 56.027359 32.050781 54.568359C32.482781 54.270359 32.611703 53.689328 32.345703 53.236328C32.272703 53.113328 32.206625 52.983516 32.140625 52.853516L32.076172 52.726562C31.867172 52.321562 31.411844 52.107937 30.964844 52.210938C28.259844 52.831938 19.096203 54.857422 14.783203 54.857422C10.901203 54.857422 8.9844687 51.31175 8.4804688 49.34375C16.877469 51.45175 27.18725 50.218063 30.15625 49.789062C30.66825 49.715063 31.038719 49.263094 31.011719 48.746094L30.994141 48.515625C30.986141 48.410625 30.978469 48.304734 30.980469 48.177734C30.982469 48.155734 30.988281 48.046391 30.988281 48.025391C30.996281 47.490391 30.583781 47.044719 30.050781 47.011719C25.706781 46.740719 14.868078 45.823922 8.0800781 43.169922C4.4340781 41.743922 2.9722969 38.132672 2.4042969 35.888672 z M 97.597656 35.888672C97.029656 38.132672 95.567875 41.743922 91.921875 43.169922C85.133875 45.822922 74.295172 46.738766 69.951172 47.009766C69.418172 47.043766 69.005672 47.489438 69.013672 48.023438C69.013672 48.045437 69.019484 48.154781 69.021484 48.175781C69.023484 48.302781 69.015812 48.408672 69.007812 48.513672L68.990234 48.744141C68.962234 49.261141 69.333703 49.713109 69.845703 49.787109C72.814703 50.216109 83.124484 51.449797 91.521484 49.341797C91.017484 51.309797 89.09975 54.857422 85.21875 54.857422C80.90675 54.857422 71.743109 52.831938 69.037109 52.210938C68.590109 52.107937 68.134781 52.321562 67.925781 52.726562L67.861328 52.851562C67.794328 52.981562 67.72925 53.110375 67.65625 53.234375C67.38925 53.687375 67.518172 54.268406 67.951172 54.566406C70.072172 56.025406 75.710063 59.436047 82.414062 59.748047C82.032062 60.248047 80.195188 62.425781 77.242188 62.425781C76.861187 62.425781 76.469219 62.389406 76.074219 62.316406C72.239219 61.604406 68.055547 57.843766 66.435547 56.259766C66.068547 55.900766 65.492609 55.877125 65.099609 56.203125C64.930609 56.343125 64.759844 56.477516 64.589844 56.603516C64.158844 56.922516 64.057375 57.526703 64.359375 57.970703C66.069375 60.485703 69.057422 64.855047 70.107422 66.248047C69.848422 66.305047 69.202547 66.429688 68.435547 66.429688C67.568547 66.429687 66.388547 66.266234 65.685547 65.490234C64.998547 64.730234 63.683875 62.258906 62.171875 58.878906C61.991875 58.477906 61.563766 58.242875 61.134766 58.296875C61.099766 58.300875 61.044766 58.310359 61.009766 58.318359C60.202766 58.432359 59.612531 58.148719 59.269531 57.886719C58.882531 57.589719 58.615313 57.161531 58.570312 56.769531C58.453312 55.757531 58.306375 54.498781 62.109375 53.175781C64.902375 52.203781 66.66275 48.942188 66.59375 44.867188C66.57375 43.665187 66.352453 42.574391 66.064453 41.650391C66.801453 42.270391 67.553328 43.102359 68.111328 44.193359C68.310328 44.581359 68.738969 44.792609 69.167969 44.724609C74.184969 43.882609 86.610656 41.386672 97.597656 35.888672 z M 49.9375 37.351562C49.741375 37.351562 49.546656 37.447625 49.472656 37.640625C48.958656 38.972625 48.062703 40.790906 46.720703 41.878906C46.368703 42.163906 46.018016 42.417828 45.666016 42.673828C44.126016 43.793828 42.794906 44.760328 42.628906 47.611328C42.615906 47.828328 42.744312 48.028422 42.945312 48.107422C43.145312 48.187422 43.375672 48.127938 43.513672 47.960938C44.440672 46.835938 44.859922 46.777344 44.919922 46.777344C44.965922 46.778344 45.034328 46.791953 45.111328 46.876953C45.163328 46.933953 45.338344 47.181703 45.402344 47.970703C45.418344 48.168703 45.547375 48.337344 45.734375 48.402344C45.920375 48.466344 46.129625 48.415484 46.265625 48.271484C46.411625 48.115484 46.773219 47.753906 46.949219 47.753906L47.017578 47.759766C47.252578 47.827766 47.396547 48.597031 47.435547 48.832031C47.465547 49.018031 47.599297 49.171516 47.779297 49.228516C47.957297 49.284516 48.155109 49.235563 48.287109 49.101562C48.430109 48.954563 48.629828 48.780391 48.798828 48.775391C48.821828 48.790391 49.043844 48.947484 49.464844 50.146484C49.535844 50.346484 49.7255 50.480469 49.9375 50.480469C50.1495 50.480469 50.338156 50.346484 50.410156 50.146484C50.831156 48.946484 51.054187 48.788297 51.117188 48.779297C51.246187 48.779297 51.443891 48.954563 51.587891 49.101562C51.719891 49.236562 51.915703 49.287469 52.095703 49.230469C52.275703 49.173469 52.409453 49.019984 52.439453 48.833984C52.478453 48.598984 52.621125 47.827578 52.828125 47.767578L52.902344 47.753906C53.103344 47.753906 53.465328 48.117438 53.611328 48.273438C53.746328 48.417437 53.952625 48.466344 54.140625 48.402344C54.326625 48.336344 54.458609 48.167703 54.474609 47.970703C54.538609 47.181703 54.711672 46.933953 54.763672 46.876953C54.824672 46.809953 54.887797 46.781297 54.966797 46.779297C55.009797 46.779297 55.420281 46.811984 56.363281 47.958984C56.501281 48.124984 56.727641 48.184469 56.931641 48.105469C57.132641 48.026469 57.261047 47.827328 57.248047 47.611328C57.081047 44.762328 55.751219 43.794016 54.199219 42.666016C53.859219 42.419016 53.50825 42.164906 53.15625 41.878906C51.81425 40.789906 50.919297 38.972625 50.404297 37.640625C50.329797 37.447625 50.133625 37.351562 49.9375 37.351562 z M 49.935547 39.097656C50.520547 40.340656 51.368391 41.71825 52.525391 42.65625C52.891391 42.95325 53.255094 43.219328 53.621094 43.486328C54.751094 44.307328 55.592094 44.918453 55.996094 46.189453C55.620094 45.912453 55.275219 45.779297 54.949219 45.779297C54.585219 45.789297 54.265484 45.938031 54.021484 46.207031C53.851484 46.395031 53.719953 46.651422 53.626953 46.982422C53.258953 46.758422 52.981656 46.709625 52.722656 46.765625L52.580078 46.798828C52.245078 46.894828 51.885813 47.112484 51.632812 47.896484C51.426812 47.799484 51.255234 47.779297 51.115234 47.779297C50.667234 47.779297 50.3225 47.943688 49.9375 48.679688C49.5525 47.943688 49.205813 47.779297 48.757812 47.779297C48.617813 47.779297 48.447234 47.799484 48.240234 47.896484C47.984234 47.111484 47.612656 46.890297 47.222656 46.779297C47.187656 46.768297 47.151281 46.761766 47.113281 46.759766L46.972656 46.753906C46.787656 46.753906 46.555094 46.788516 46.246094 46.978516C46.152094 46.649516 46.020562 46.394031 45.851562 46.207031C45.612562 45.942031 45.290641 45.790297 44.931641 45.779297C44.602641 45.779297 44.254047 45.914313 43.873047 46.195312C44.278047 44.919312 45.121672 44.306562 46.263672 43.476562C46.616672 43.219563 46.981656 42.955203 47.347656 42.658203C48.504656 41.720203 49.351547 40.341656 49.935547 39.097656 z M 49.935547 53.341797C49.757547 53.341797 49.580641 53.423891 49.494141 53.587891C49.377141 53.808891 49.246516 54.007688 49.103516 54.179688C48.853516 54.479687 48.555281 54.758641 48.238281 55.056641C47.679281 55.580641 47.102109 56.123703 46.537109 56.970703C46.122109 57.594703 45.897219 58.122844 45.699219 58.589844C45.466219 59.138844 45.263172 59.613219 44.826172 60.074219C44.619172 60.292219 44.354062 60.486391 44.039062 60.650391C43.862063 60.741391 43.757484 60.929906 43.771484 61.128906C43.785484 61.327906 43.915516 61.498453 44.103516 61.564453C45.633516 62.106453 48.241578 63.278391 48.517578 65.025391C48.808578 66.867391 48.064703 67.962172 47.595703 68.451172C47.438703 68.616172 47.41125 68.866547 47.53125 69.060547C47.94425 69.729547 48.6275 71.078937 48.5625 72.585938C48.4925 74.185938 47.748641 75.600766 47.431641 76.134766C47.331641 76.303766 47.338172 76.516734 47.451172 76.677734C47.780172 77.145734 48.58875 78.371391 48.96875 79.650391C49.14475 80.240391 49.308172 80.871125 49.451172 81.453125C49.506172 81.677125 49.7075 81.835938 49.9375 81.835938C50.1685 81.835938 50.367875 81.678078 50.421875 81.455078C50.563875 80.873078 50.729297 80.240391 50.904297 79.650391C51.285297 78.371391 52.090922 77.145734 52.419922 76.677734C52.532922 76.516734 52.541406 76.303766 52.441406 76.134766C52.124406 75.600766 51.379547 74.185937 51.310547 72.585938C51.244547 71.078937 51.926844 69.729547 52.339844 69.060547C52.459844 68.866547 52.433391 68.616172 52.275391 68.451172C51.807391 67.963172 51.063469 66.867391 51.355469 65.025391C51.630469 63.278391 54.239531 62.108406 55.769531 61.566406C55.957531 61.500406 56.087562 61.327906 56.101562 61.128906C56.115563 60.929906 56.009031 60.741391 55.832031 60.650391C55.516031 60.487391 55.251922 60.294172 55.044922 60.076172C54.607922 59.615172 54.406828 59.140797 54.173828 58.591797C53.975828 58.124797 53.750937 57.594703 53.335938 56.970703C52.770937 56.123703 52.192859 55.582687 51.630859 55.054688C51.316859 54.759688 51.021484 54.479687 50.771484 54.179688C50.627484 54.006688 50.494906 53.807891 50.378906 53.587891C50.292406 53.423891 50.113547 53.341797 49.935547 53.341797 z M 49.9375 54.738281C49.9585 54.766281 49.981906 54.792359 50.003906 54.818359C50.292906 55.165359 50.610172 55.465156 50.951172 55.785156C51.468172 56.271156 52.002906 56.772438 52.503906 57.523438C52.867906 58.069438 53.063906 58.533469 53.253906 58.980469C53.502906 59.565469 53.758313 60.169719 54.320312 60.761719C54.388313 60.832719 54.460156 60.90175 54.535156 60.96875C52.634156 61.76275 50.661141 63.018188 50.369141 64.867188C50.057141 66.834188 50.728734 68.136516 51.302734 68.853516C50.835734 69.688516 50.2445 71.073906 50.3125 72.628906C50.3805 74.191906 50.980828 75.557234 51.423828 76.365234C50.966828 77.048234 50.304266 78.166234 49.947266 79.365234C49.944266 79.377234 49.9405 79.387438 49.9375 79.398438C49.9345 79.386437 49.930734 79.376234 49.927734 79.365234C49.570734 78.165234 48.908172 77.048234 48.451172 76.365234C48.894172 75.558234 49.4945 74.191906 49.5625 72.628906C49.6305 71.073906 49.038266 69.688516 48.572266 68.853516C49.146266 68.136516 49.817859 66.834187 49.505859 64.867188C49.213859 63.019187 47.239844 61.76275 45.339844 60.96875C45.414844 60.90175 45.487687 60.832719 45.554688 60.761719C46.116687 60.168719 46.372094 59.563516 46.621094 58.978516C46.811094 58.530516 47.008094 58.068438 47.371094 57.523438C47.872094 56.772437 48.406734 56.27025 48.927734 55.78125C49.264734 55.46525 49.583047 55.166359 49.873047 54.818359C49.895047 54.791359 49.9165 54.765281 49.9375 54.738281 z M 43.410156 64.007812C42.298156 64.007812 41.314375 64.655125 40.859375 65.703125L38.011719 70.443359C35.723719 70.446359 31.322641 70.464906 31.056641 70.503906C30.141641 70.633906 29.244828 71.312281 29.298828 72.363281C29.317828 72.730281 29.346094 73.286672 34.746094 79.513672C34.940094 79.737672 35.217953 79.857422 35.501953 79.857422C35.633953 79.857422 35.767531 79.832344 35.894531 79.777344C36.293531 79.607344 36.537047 79.199578 36.498047 78.767578L36.236328 75.851562L39.302734 75.908203L39.429688 77.025391C39.471688 77.396391 39.715453 77.714656 40.064453 77.847656C40.411453 77.979656 40.805937 77.907156 41.085938 77.660156C45.775938 73.503156 45.975547 73.188688 46.060547 73.054688C46.270547 72.724687 46.334187 72.318156 46.242188 71.910156C46.132187 71.424156 45.787719 70.929688 45.386719 70.679688C45.386719 70.679688 45.384766 70.679688 45.384766 70.679688C45.184766 70.556687 45.104734 70.505516 44.052734 70.478516L45.681641 68.357422C45.699641 68.333422 45.732047 68.284766 45.748047 68.259766C46.030047 67.816766 46.179688 67.303391 46.179688 66.775391C46.179688 65.248391 44.937156 64.007812 43.410156 64.007812 z M 56.589844 64.007812C55.062844 64.007812 53.820312 65.250344 53.820312 66.777344C53.820312 67.304344 53.969953 67.818719 54.251953 68.261719C54.267953 68.286719 54.300359 68.336375 54.318359 68.359375L55.949219 70.478516C54.897219 70.505516 54.814234 70.555688 54.615234 70.679688C54.615234 70.679688 54.613281 70.681641 54.613281 70.681641C54.212281 70.931641 53.867812 71.426109 53.757812 71.912109C53.665813 72.320109 53.730453 72.726641 53.939453 73.056641C54.024453 73.190641 54.224063 73.504109 58.914062 77.662109C59.193062 77.910109 59.587547 77.979656 59.935547 77.847656C60.284547 77.714656 60.530266 77.398344 60.572266 77.027344L60.699219 75.910156L63.763672 75.851562L63.501953 78.767578C63.462953 79.199578 63.708422 79.607344 64.107422 79.777344C64.233422 79.831344 64.365047 79.858375 64.498047 79.859375C64.782047 79.859375 65.061859 79.737672 65.255859 79.513672C70.655859 73.286672 70.684125 72.732234 70.703125 72.365234C70.757125 71.315234 69.860313 70.633906 68.945312 70.503906C68.679312 70.464906 64.279234 70.445359 61.990234 70.443359L59.142578 65.705078C58.688578 64.657078 57.701844 64.007812 56.589844 64.007812 z M 43.410156 66.007812C43.834156 66.007812 44.179688 66.351391 44.179688 66.775391C44.179687 66.921391 44.138703 67.063672 44.095703 67.138672L41.248047 70.841797C41.017047 71.142797 40.976578 71.549625 41.142578 71.890625C41.308578 72.231625 41.654203 72.448172 42.033203 72.451172C42.875203 72.457172 43.451703 72.467562 43.845703 72.476562C43.244703 73.039562 42.258266 73.931813 41.197266 74.882812L41.189453 74.814453C41.132453 74.316453 40.715844 73.937734 40.214844 73.927734L35.158203 73.830078C34.884203 73.837078 34.601203 73.940438 34.408203 74.148438C34.214203 74.356437 34.119531 74.636922 34.144531 74.919922L34.224609 75.818359C33.066609 74.436359 32.051781 73.178422 31.550781 72.482422C32.461781 72.466422 35.374125 72.442406 38.578125 72.441406C38.929125 72.441406 39.254547 72.258031 39.435547 71.957031L42.611328 66.671875C42.639328 66.623875 42.675312 66.545141 42.695312 66.494141C42.811312 66.198141 43.092156 66.007812 43.410156 66.007812 z M 56.589844 66.007812C56.907844 66.007812 57.189641 66.198141 57.306641 66.494141C57.326641 66.546141 57.361625 66.626828 57.390625 66.673828L60.566406 71.957031C60.747406 72.258031 61.072828 72.443359 61.423828 72.443359C64.626828 72.443359 67.539172 72.467375 68.451172 72.484375C67.950172 73.179375 66.933391 74.436359 65.775391 75.818359L65.857422 74.921875C65.882422 74.638875 65.785797 74.358391 65.591797 74.150391C65.398797 73.943391 65.115797 73.839031 64.841797 73.832031L59.785156 73.927734C59.283156 73.937734 58.867547 74.316453 58.810547 74.814453L58.802734 74.884766C57.741734 73.933766 56.75825 73.039563 56.15625 72.476562C56.55025 72.467562 57.124797 72.459125 57.966797 72.453125C58.345797 72.450125 58.690422 72.231625 58.857422 71.890625C59.023422 71.549625 58.982953 71.14475 58.751953 70.84375L55.904297 67.140625C55.861297 67.066625 55.820312 66.923344 55.820312 66.777344C55.820312 66.353344 56.165844 66.007812 56.589844 66.007812 z" fill="#F0F0F0" />
</svg>